<svg width="289" height="176" viewBox="0 0 289 176" fill="none" xmlns="http://www.w3.org/2000/svg">
<path d="M54.3665 148.368C54.3665 163.19 42.8368 175.205 28.614 175.205C14.3913 175.205 2.86157 163.19 2.86157 148.368C2.86157 133.547 28.614 95.0264 28.614 95.0264C28.614 95.0264 54.3665 133.547 54.3665 148.368Z" fill="#0D6766"/>
<path d="M53.2149 6.24651V9.70612H29.6793V81.9254H26.3905V9.70612H2.85488V6.24651H53.2149Z" fill="white"/>
<path d="M92.4925 22.4634C105.956 22.4634 114.281 32.0854 114.281 47.4375V81.9254H110.992V47.978C110.992 34.1396 103.798 25.7068 91.8758 25.7068C80.5705 25.7068 70.9096 35.9775 70.9096 47.978V81.9254H67.6208V3.00313H70.9096V36.8424C74.7123 28.3015 83.0371 22.4634 92.4925 22.4634Z" fill="white"/>
<path d="M132.639 10.571V4.62482H137.47V10.571H132.639ZM133.461 81.9254V23.5445H136.75V81.9254H133.461Z" fill="white"/>
<path d="M217.128 83.1147C204.589 83.1147 196.881 76.6279 195.956 66.0328H199.245C200.067 74.79 206.748 79.8713 217.231 79.8713C227.817 79.8713 234.805 74.5737 234.805 66.4653C234.805 56.4108 225.761 54.5729 216.614 52.9512C206.953 51.2214 197.087 49.4916 197.087 38.0316C197.087 28.734 205 22.4634 216.717 22.4634C228.536 22.4634 236.039 28.734 236.553 38.7884H233.469C232.853 30.5719 226.789 25.5987 216.717 25.5987C206.85 25.5987 200.273 30.5719 200.273 37.9235C200.273 46.6807 208.289 48.0861 217.334 49.7078C227.097 51.3295 238.094 53.4918 238.094 66.3572C238.094 76.4117 229.667 83.1147 217.128 83.1147Z" fill="white"/>
<path d="M279.156 78.682H286.145V82.0335H278.848C268.468 82.0335 262.198 75.3305 262.198 64.1949V26.7879H249.454V23.6527H262.198V6.46274H265.487V23.6527H285.631V26.7879H265.487V64.0868C265.487 73.2764 270.42 78.682 279.156 78.682Z" fill="white"/>
<path fill-rule="evenodd" clip-rule="evenodd" d="M64.7659 0H73.7645V27.5092C78.6074 22.5153 85.2543 19.4603 92.4925 19.4603C99.9004 19.4603 106.157 22.129 110.541 27.1654C114.898 32.1709 117.136 39.2032 117.136 47.4375V84.9285H108.137V47.978C108.137 41.5863 106.479 36.8088 103.784 33.6637C101.123 30.5578 97.1663 28.7099 91.8758 28.7099C82.1741 28.7099 73.7645 37.6077 73.7645 47.978V84.9285H64.7659V0ZM129.784 1.62169H140.325V13.5742H129.784V1.62169ZM0 3.24338H56.0698V12.7092H32.5342V84.9285H23.5356V12.7092H0V3.24338ZM259.344 3.45961H268.342V20.6495H288.486V29.7911H268.342V64.0868C268.342 68.1276 269.419 70.9374 271.086 72.7303C272.745 74.5135 275.349 75.6789 279.156 75.6789H289V85.0367H278.848C273.067 85.0367 268.107 83.1566 264.594 79.3947C261.087 75.6393 259.344 70.3536 259.344 64.1949V29.7911H246.599V20.6495H259.344V3.45961ZM200.79 24.3627C204.846 21.1466 210.405 19.4603 216.717 19.4603C223.082 19.4603 228.59 21.1483 232.638 24.4941C236.741 27.8849 239.105 32.7891 239.403 38.6272L239.565 41.7916H230.831L230.623 39.0248C230.374 35.7013 229.066 33.2186 226.916 31.5071C224.702 29.7445 221.336 28.6018 216.717 28.6018C212.204 28.6018 208.723 29.7437 206.454 31.448C204.255 33.1006 203.128 35.3071 203.128 37.9235C203.128 39.6055 203.504 40.7283 204.031 41.5486C204.575 42.3934 205.422 43.1394 206.688 43.8054C209.357 45.209 213.133 45.9081 217.796 46.7443C222.581 47.5393 228.289 48.5412 232.776 51.1993C235.085 52.5672 237.168 54.4226 238.659 56.9902C240.156 59.567 240.949 62.6738 240.949 66.3572C240.949 72.3639 238.393 77.4231 234.039 80.8988C229.748 84.3236 223.85 86.1178 217.128 86.1178C210.413 86.1178 204.678 84.3807 200.437 80.9197C196.147 77.4185 193.641 72.357 193.113 66.3075L192.827 63.0297H201.832L202.086 65.7377C202.422 69.312 203.907 71.9762 206.297 73.8094C208.754 75.6939 212.397 76.8681 217.231 76.8681C222.109 76.8681 225.862 75.6431 228.314 73.7763C230.689 71.9679 231.951 69.4979 231.951 66.4653C231.951 64.4484 231.505 63.0321 230.852 61.9709C230.188 60.8909 229.187 59.9795 227.791 59.193C224.876 57.5494 220.82 56.7424 216.14 55.9126L215.784 55.8489C211.181 55.0258 205.943 54.0891 201.874 51.7844C199.716 50.5619 197.762 48.8946 196.362 46.5523C194.956 44.1987 194.232 41.3675 194.232 38.0316C194.232 32.3878 196.672 27.6277 200.79 24.3627ZM162.533 27.666C166.82 23.1085 172.694 20.4333 179.763 20.4333H187.449V29.7911H179.558C174.529 29.7911 170.482 31.8049 167.666 35.105C164.826 38.4334 163.091 43.2516 163.091 49.0591V84.9285H154.092V20.5414H162.258L162.533 27.666ZM130.607 20.5414H139.605V84.9285H130.607V20.5414Z" fill="white"/>
<path d="M123.803 171.302L115.383 150.969H78.5434L70.3143 171.302H66.9653L95.3843 100.842H98.0635L127.248 171.302H123.803ZM96.7239 105.674L79.7873 147.849H114.139L96.7239 105.674Z" fill="white"/>
<path d="M141.645 171.302V97.8224H144.707V171.302H141.645Z" fill="white"/>
<path d="M210.302 143.822C210.302 144.225 210.302 144.728 210.206 145.131H161.98C162.459 159.022 172.123 169.188 184.85 169.188C194.035 169.188 201.308 164.256 205.422 155.801H208.676C203.795 166.571 195.471 172.409 184.85 172.409C170.114 172.409 159.014 160.23 159.014 144.124C159.014 128.12 170.114 115.941 184.85 115.941C199.777 115.941 210.302 128.12 210.302 143.822ZM184.85 119.061C172.41 119.061 162.937 128.724 162.076 142.111H207.24C206.475 128.321 197.002 119.061 184.85 119.061Z" fill="white"/>
<path d="M245.399 116.846H249.896V119.967H245.208C234.395 119.967 227.219 128.724 227.219 140.702V171.302H224.157V116.947H226.549L227.027 129.328C230.281 121.678 236.692 116.846 245.399 116.846Z" fill="white"/>
<path d="M279.835 168.282H286.342V171.402H279.548C269.884 171.402 264.047 165.162 264.047 154.794V119.967H252.182V117.048H264.047V101.043H267.109V117.048H285.863V119.967H267.109V154.693C267.109 163.249 271.702 168.282 279.835 168.282Z" fill="white"/>
<path fill-rule="evenodd" clip-rule="evenodd" d="M138.988 95.0264H147.366V174.098H138.988V95.0264ZM93.6249 98.0461H99.8049L131.306 174.098H122.062L113.642 153.765H80.3008L72.0717 174.098H62.9504L93.6249 98.0461ZM96.7581 112.774L83.7957 145.053H110.087L96.7581 112.774ZM261.389 98.2474H269.767V114.252H288.521V122.763H269.767V154.693C269.767 158.455 270.769 161.071 272.322 162.741C273.866 164.401 276.29 165.486 279.835 165.486H289V174.198H279.548C274.166 174.198 269.548 172.448 266.277 168.946C263.012 165.449 261.389 160.528 261.389 154.794V122.763H245.208C240.526 122.763 236.758 124.638 234.137 127.71C231.492 130.809 229.877 135.295 229.877 140.702V174.098H221.499V114.151H229.101L229.357 120.784C233.349 116.541 238.818 114.05 245.399 114.05L252.554 114.151L261.389 114.252V98.2474ZM156.356 144.124C156.356 126.677 168.551 113.145 184.85 113.145C201.385 113.145 212.96 126.728 212.96 143.822C212.96 143.842 212.96 143.864 212.96 143.888C212.961 144.244 212.964 145.058 212.785 145.809L212.282 147.927H164.89C166.443 158.863 174.53 166.392 184.85 166.392C192.996 166.392 199.377 162.087 203.056 154.527L203.797 153.005H212.887L211.075 157.004C205.796 168.654 196.59 175.205 184.85 175.205C168.545 175.205 156.356 161.666 156.356 144.124ZM165.088 139.315H204.265C202.511 128.639 194.663 121.857 184.85 121.857C174.818 121.857 166.946 128.923 165.088 139.315Z" fill="white"/>
</svg>
